<svg width="128" height="128" viewBox="0 0 128 128" xmlns="http://www.w3.org/2000/svg"><path d="M70.4 6v15.1c13.7 1.1 25.4 6.2 35.1 15.2L94.8 51.1c-7.2-6.5-15.3-10.4-24.4-11.6v19.8c17.2 4.2 29.1 9.5 35.7 15.9 6.6 6.3 9.9 15.1 9.9 26.2 0 11.3-4.2 20.5-12.6 27.7-8.4 7.1-19.4 11.2-33 12.1V122H57.1v-15.4c-16.9-1.6-31.3-8.3-43.2-20.1l11.8-14.4c9.7 9 20.1 14.4 31.4 16.1V67.1C40.5 63 29 57.8 22.6 51.5 16.2 45.2 13 36.6 13 25.8c0-10.9 4.1-19.8 12.3-26.7 8.2-6.9 18.8-10.9 31.8-12.1V6h13.3zM35.8 25.2c0 4.8 1.6 8.5 4.7 11.2 3.1 2.7 8.7 5.2 16.6 7.4V25.4c-6.8.9-12.1 3-15.8 6.3-3.7 3.2-5.5 7.7-5.5 13.5zm34.6 64.9c7.2-.9 12.9-3.1 16.9-6.6 4-3.5 6-7.9 6-13.2 0-4.9-1.7-8.8-5.1-11.6-3.4-2.8-9.3-5.5-17.8-7.9v39.3z" transform="translate(0 13)"/></svg>
